<?xml version="1.0" encoding="utf-8"?>
<!-- Generator: Adobe Illustrator 22.1.0, SVG Export Plug-In . SVG Version: 6.00 Build 0)  -->
<svg version="1.1" id="레이어_1" xmlns="http://www.w3.org/2000/svg" xmlns:xlink="http://www.w3.org/1999/xlink" x="0px"
	 y="0px" viewBox="0 0 1080 1920" style="enable-background:new 0 0 1080 1920;" xml:space="preserve">
<style type="text/css">
	.st0{fill:none;stroke:#008CF4;stroke-width:5;stroke-linejoin:round;stroke-miterlimit:10;}
	.st1{fill:#008CF4;}
	.st2{fill:none;stroke:#008CF4;stroke-width:4;stroke-linecap:round;stroke-miterlimit:10;}
</style>
<g id="레이어_2">
</g>
<g>
	<path class="st0" d="M484,680.4c-46.5-17.8-85.9-18.4-96-18.4c-111.2,0-180.4,69.8-192,82v514c7.8-10.1,75.4-94,192-94
		c37.1,0,69.2,8.5,96,20.4"/>
	<path class="st0" d="M596,680.4c46.5-17.8,85.9-18.4,96-18.4c111.2,0,180.4,69.8,192,82v514c-7.8-10.1-75.4-94-192-94
		c-37.1,0-69.2,8.5-96,20.4"/>
	<g>
		<path class="st1" d="M526.3,896c0,0-3.8-2.1-11.4-6.4c-7.6-4.3-13.4-10.4-17.5-18.3c-4.1-7.9-6.1-17.3-6.1-28.2v-39
			c0-10.9,2-20.3,6.1-28.2c4.1-7.9,9.9-14.1,17.5-18.4c7.6-4.3,16.5-6.4,26.8-6.4c8.5,0,16.3,1.8,23.2,5.5
			c6.9,3.6,12.7,8.9,17.3,15.8c4.6,6.9,7.7,15,9.4,24.4h-24c-1.2-4.6-3-8.5-5.6-12s-5.6-6-9-7.9c-3.5-1.8-7.2-2.7-11.3-2.7
			c-5.4,0-10.1,1.2-14,3.7c-3.9,2.4-7,5.9-9.1,10.4s-3.2,9.8-3.2,15.9v39c0,6.1,1.1,11.4,3.2,15.9s5.2,7.9,9.1,10.4
			c3.9,2.4,8.6,3.6,14,3.6c4.1,0,7.9-0.9,11.4-2.6c3.5-1.8,6.5-4.3,9-7.7c2.5-3.4,4.4-7.5,5.5-12.2h24c-1.8,9.4-4.9,17.5-9.5,24.4
			c-4.6,6.9-10.4,12.1-17.3,15.8c-6.9,3.6-14.6,5.5-23.1,5.5C531.4,896,526.3,896,526.3,896z"/>
		<path class="st1" d="M527.9,1105c0,0-3.1-0.7-9.4-2c-6.3-1.3-12.2-3.3-17.7-5.9c-5.5-2.6-10.5-5.8-15.1-9.7l12.4-18.7
			c5.5,4.6,11.6,8.1,18.4,10.5c6.8,2.4,14,3.6,21.6,3.6c9.5,0,16.9-1.7,22.1-5.1c5.2-3.4,7.9-8.2,7.9-14.4v-0.1
			c0-4.4-1.2-7.8-3.5-10.4c-2.3-2.6-5.4-4.5-9.2-5.7c-3.8-1.2-8.6-2.3-14.6-3.4c-0.2-0.1-0.4-0.1-0.6-0.1s-0.4,0-0.6-0.1l-1.8-0.3
			c-9.5-1.6-17.3-3.4-23.4-5.6c-6.1-2.1-11.3-6-15.6-11.5c-4.3-5.5-6.4-13.4-6.4-23.5v-0.1c0-9,2-16.7,6.1-23
			c4-6.4,9.9-11.2,17.6-14.6c7.7-3.3,16.9-5,27.7-5c5.1,0,10.2,0.6,15.3,1.7c5.1,1.1,10.1,2.8,15,5c4.9,2.2,9.7,4.9,14.3,8.2
			l-11.3,19.2c-5.5-3.9-11-6.9-16.7-8.9c-5.7-2-11.2-3-16.6-3c-9,0-15.9,1.6-20.8,4.9c-4.9,3.3-7.4,7.9-7.4,13.9v0.1
			c0,4.5,1.3,8,3.8,10.6c2.5,2.6,5.7,4.5,9.5,5.7c3.8,1.2,9.1,2.5,16,3.9c0.3,0.1,0.5,0.1,0.7,0.1c0.2,0,0.5,0.1,0.7,0.1
			c0.3,0.1,0.7,0.1,1.1,0.2c0.4,0.1,0.7,0.1,1.1,0.2c8.8,1.8,16.1,3.9,22,6.3c5.9,2.5,10.8,6.4,14.8,11.9c4,5.5,6,12.9,6,22.4v0.2
			c0,8.9-2.1,16.4-6.3,22.8c-4.2,6.3-10.2,11.1-18.2,14.4c-7.9,3.3-17.5,4.9-28.7,4.9C531.3,1105,527.9,1105,527.9,1105z"/>
	</g>
	<path class="st2" d="M456.5,773.5c-18.8-9.5-48.7-21.1-86.1-21c-79.2,0.2-133.1,52.6-147.9,68"/>
	<path class="st2" d="M456.5,912.5c-18.8-9.5-48.7-21.1-86.1-21c-79.2,0.2-133.1,52.6-147.9,68"/>
	<path class="st2" d="M456.5,1058.5c-18.8-9.5-48.7-21.1-86.1-21c-79.2,0.2-133.1,52.6-147.9,68"/>
	<path class="st2" d="M622.5,773.5c18.8-9.5,48.7-21.1,86.1-21c79.2,0.2,133.1,52.6,147.9,68"/>
	<path class="st2" d="M622.5,912.5c18.8-9.5,48.7-21.1,86.1-21c79.2,0.2,133.1,52.6,147.9,68"/>
	<path class="st2" d="M622.5,1058.5c18.8-9.5,48.7-21.1,86.1-21c79.2,0.2,133.1,52.6,147.9,68"/>
</g>
</svg>
