<?xml version="1.0" encoding="utf-8"?>
<!-- Generator: Adobe Illustrator 22.1.0, SVG Export Plug-In . SVG Version: 6.00 Build 0)  -->
<svg version="1.1" id="layer" xmlns="http://www.w3.org/2000/svg" xmlns:xlink="http://www.w3.org/1999/xlink" x="0px" y="0px"
	 viewBox="0 0 24 24" style="enable-background:new 0 0 24 24;" xml:space="preserve">
<style type="text/css">
	.st0{fill:#00A0A8;}
	.st1{fill:#21489D;}
</style>
<g>
	<g>
		<path class="st0" d="M4.3,12.2L4.3,12.2l0-4.1c0,0,4.3,2.5,4.4,2.6C9,10.8,9.4,11.2,9.4,12l0,0v0.2L5.5,9.9c0,0,0,2.2,0,2.3
			c0,0.3,0.3,0.5,0.3,0.5l2.4,1.4v-0.8l-1-0.6v-1.1l1.6,0.9C9,12.7,9.4,13,9.4,13.7l0,0V16l-4.2-2.5C5.2,13.6,4.3,13.1,4.3,12.2z"/>
	</g>
	<g>
		<path class="st1" d="M10.2,10.9l3.6-2.1c0,0,0.3-0.2,0.6-0.2l0,0c0.1,0,0.3,0,0.4,0.2l0,0C14.9,9,15,9.2,15,9.4l0,0v3.9L13.7,14
			v-3.9c0,0,0,0,0,0l-2.3,1.3v3.9L10.2,16V10.9L10.2,10.9z"/>
	</g>
	<g>
		<path class="st0" d="M15.7,12.5C15.7,12,15.7,12.5,15.7,12.5v-4c0,0,0.4,0.2,0.8,0.5l0,0c0.2,0.2,0.4,0.6,0.4,1l0,0v2.4
			c0,0.4,0.4,0.6,0.4,0.6l0,0l1.8,1v-3.7c0,0,0.4,0.2,0.8,0.5l0,0c0.2,0.2,0.4,0.6,0.4,1l0,0v4c0,0-3.2-1.8-3.7-2.1
			C16.1,13.6,15.7,13.1,15.7,12.5z"/>
	</g>
</g>
</svg>
