<?xml version="1.0" encoding="utf-8"?>
<!-- Generator: Adobe Illustrator 22.1.0, SVG Export Plug-In . SVG Version: 6.00 Build 0)  -->
<svg version="1.1" id="레이어_1" xmlns="http://www.w3.org/2000/svg" xmlns:xlink="http://www.w3.org/1999/xlink" x="0px"
	 y="0px" viewBox="0 0 283.5 283.5" style="enable-background:new 0 0 283.5 283.5;" xml:space="preserve">
<style type="text/css">
	.st0{fill:none;stroke:#008CF4;stroke-width:5;stroke-linejoin:round;stroke-miterlimit:10;}
	.st1{fill:#008CF4;}
	.st2{fill:none;stroke:#008CF4;stroke-width:4;stroke-linecap:round;stroke-miterlimit:10;}
</style>
<g>
	<path class="st0" d="M120.3,33.9c-18-6.9-33.2-7.1-37.1-7.1c-43,0-69.7,27-74.2,31.7v198.7c3-3.9,29.2-36.3,74.2-36.3
		c14.3,0,26.8,3.3,37.1,7.9"/>
	<path class="st0" d="M163.7,33.9c18-6.9,33.2-7.1,37.1-7.1c43,0,69.7,27,74.2,31.7v198.7c-3-3.9-29.2-36.3-74.2-36.3
		c-14.3,0-26.8,3.3-37.1,7.9"/>
	<g>
		<path class="st1" d="M136.7,117.3c0,0-1.5-0.8-4.4-2.5c-2.9-1.7-5.2-4-6.8-7.1c-1.6-3.1-2.4-6.7-2.4-10.9V81.7
			c0-4.2,0.8-7.8,2.4-10.9c1.6-3.1,3.8-5.5,6.8-7.1c2.9-1.7,6.4-2.5,10.4-2.5c3.3,0,6.3,0.7,9,2.1c2.7,1.4,4.9,3.4,6.7,6.1
			c1.8,2.7,3,5.8,3.6,9.4h-9.3c-0.5-1.8-1.2-3.3-2.2-4.6c-1-1.4-2.2-2.3-3.5-3.1c-1.4-0.7-2.8-1-4.4-1c-2.1,0-3.9,0.5-5.4,1.4
			c-1.5,0.9-2.7,2.3-3.5,4c-0.8,1.7-1.2,3.8-1.2,6.1v15.1c0,2.4,0.4,4.4,1.2,6.1s2,3.1,3.5,4c1.5,0.9,3.3,1.4,5.4,1.4
			c1.6,0,3.1-0.3,4.4-1c1.4-0.7,2.5-1.7,3.5-3s1.7-2.9,2.1-4.7h9.3c-0.7,3.6-1.9,6.8-3.7,9.4c-1.8,2.7-4,4.7-6.7,6.1
			c-2.7,1.4-5.6,2.1-8.9,2.1C138.7,117.3,136.7,117.3,136.7,117.3z"/>
		<path class="st1" d="M137.3,198.1c0,0-1.2-0.3-3.6-0.8c-2.4-0.5-4.7-1.3-6.8-2.3c-2.1-1-4.1-2.2-5.8-3.8l4.8-7.2
			c2.1,1.8,4.5,3.1,7.1,4.1c2.6,0.9,5.4,1.4,8.4,1.4c3.7,0,6.5-0.7,8.5-2c2-1.3,3.1-3.2,3.1-5.6v0c0-1.7-0.5-3-1.4-4
			c-0.9-1-2.1-1.7-3.6-2.2c-1.5-0.5-3.3-0.9-5.6-1.3c-0.1,0-0.2,0-0.2,0s-0.2,0-0.2,0l-0.7-0.1c-3.7-0.6-6.7-1.3-9-2.2
			c-2.4-0.8-4.4-2.3-6-4.4c-1.7-2.1-2.5-5.2-2.5-9.1v0c0-3.5,0.8-6.5,2.4-8.9c1.5-2.5,3.8-4.3,6.8-5.6c3-1.3,6.5-1.9,10.7-1.9
			c2,0,3.9,0.2,5.9,0.7c2,0.4,3.9,1.1,5.8,1.9s3.8,1.9,5.5,3.2l-4.4,7.4c-2.1-1.5-4.3-2.7-6.5-3.4s-4.3-1.2-6.4-1.2
			c-3.5,0-6.1,0.6-8,1.9c-1.9,1.3-2.9,3.1-2.9,5.4v0c0,1.7,0.5,3.1,1.5,4.1c1,1,2.2,1.7,3.7,2.2c1.5,0.5,3.5,1,6.2,1.5
			c0.1,0,0.2,0,0.3,0s0.2,0,0.3,0c0.1,0,0.3,0,0.4,0.1c0.2,0,0.3,0,0.4,0.1c3.4,0.7,6.2,1.5,8.5,2.4c2.3,1,4.2,2.5,5.7,4.6
			s2.3,5,2.3,8.7v0.1c0,3.4-0.8,6.3-2.4,8.8c-1.6,2.4-3.9,4.3-7,5.6c-3.1,1.3-6.8,1.9-11.1,1.9C138.6,198.1,137.3,198.1,137.3,198.1
			z"/>
	</g>
	<path class="st2" d="M109.7,69.9c-7.3-3.7-18.8-8.2-33.3-8.1C45.8,61.9,25,82.1,19.2,88.1"/>
	<path class="st2" d="M109.7,123.6c-7.3-3.7-18.8-8.2-33.3-8.1c-30.6,0.1-51.5,20.3-57.2,26.3"/>
	<path class="st2" d="M109.7,180.1c-7.3-3.7-18.8-8.2-33.3-8.1C45.8,172,25,192.3,19.2,198.3"/>
	<path class="st2" d="M173.9,69.9c7.3-3.7,18.8-8.2,33.3-8.1c30.6,0.1,51.5,20.3,57.2,26.3"/>
	<path class="st2" d="M173.9,123.6c7.3-3.7,18.8-8.2,33.3-8.1c30.6,0.1,51.5,20.3,57.2,26.3"/>
	<path class="st2" d="M173.9,180.1c7.3-3.7,18.8-8.2,33.3-8.1c30.6,0.1,51.5,20.3,57.2,26.3"/>
</g>
</svg>
